<svg width="836" height="182" viewBox="0 0 836 182" fill="none" xmlns="http://www.w3.org/2000/svg">
<path d="M267.556 72H279.774L254.6 43.546L279.364 15.01H267.638L245.498 41.004V15.01H236.15V72H245.498V46.498L267.556 72ZM285.581 72H294.929V11.32H285.581V72ZM304.742 72H314.09V26.818H304.742V72ZM309.498 20.832C312.778 20.832 315.402 18.208 315.402 14.846C315.402 11.484 312.778 8.86 309.498 8.86C306.136 8.86 303.512 11.484 303.512 14.846C303.512 18.208 306.136 20.832 309.498 20.832ZM387.945 72H397.211V45.35C397.211 32.722 389.175 26.08 378.597 26.08C372.037 26.08 365.641 29.524 362.853 35.018C359.737 29.114 353.751 26.08 346.617 26.08C341.205 26.08 336.285 28.294 333.251 31.984V26.818H323.903V72H333.251V46.744C333.251 38.462 337.761 34.198 344.649 34.198C351.455 34.198 355.965 38.462 355.965 46.744V72H365.231V46.744C365.231 38.462 369.741 34.198 376.629 34.198C383.435 34.198 387.945 38.462 387.945 46.744V72ZM403.53 49.204C403.53 63.144 412.96 72.738 424.686 72.738C432.23 72.738 437.642 69.13 440.512 65.276V72H449.942V26.818H440.512V33.378C437.724 29.688 432.476 26.08 424.85 26.08C412.96 26.08 403.53 35.264 403.53 49.204ZM440.512 49.368C440.512 59.126 433.87 64.62 426.818 64.62C419.848 64.62 413.124 58.962 413.124 49.204C413.124 39.446 419.848 34.198 426.818 34.198C433.87 34.198 440.512 39.692 440.512 49.368ZM245.498 128.25V109.636H255.83C263.128 109.636 266.408 113.08 266.408 118.984C266.408 124.724 263.128 128.25 255.83 128.25H245.498ZM276.002 118.984C276.002 109.718 269.36 102.01 255.83 102.01H236.15V159H245.498V135.876H255.83C270.672 135.876 276.002 127.102 276.002 118.984ZM282.458 159H291.806V98.32H282.458V159ZM298.503 136.204C298.503 150.144 307.933 159.738 319.659 159.738C327.203 159.738 332.615 156.13 335.485 152.276V159H344.915V113.818H335.485V120.378C332.697 116.688 327.449 113.08 319.823 113.08C307.933 113.08 298.503 122.264 298.503 136.204ZM335.485 136.368C335.485 146.126 328.843 151.62 321.791 151.62C314.821 151.62 308.097 145.962 308.097 136.204C308.097 126.446 314.821 121.198 321.791 121.198C328.843 121.198 335.485 126.692 335.485 136.368ZM372.527 148.258L359.817 113.818H349.403L367.197 158.262L358.013 180.238H367.689L395.405 113.818H385.729L372.527 148.258ZM396.883 136.204C396.883 150.144 406.313 159.738 418.203 159.738C425.583 159.738 430.995 156.048 433.865 152.194V159.738C433.865 168.758 428.453 173.186 421.237 173.186C414.759 173.186 409.757 169.988 408.363 165.314H399.097C400.245 175.318 409.183 181.304 421.237 181.304C435.341 181.304 443.295 172.038 443.295 159.738V113.818H433.865V120.378C431.077 116.524 425.583 113.08 418.203 113.08C406.313 113.08 396.883 122.264 396.883 136.204ZM433.865 136.368C433.865 146.126 427.223 151.62 420.171 151.62C413.201 151.62 406.477 145.962 406.477 136.204C406.477 126.446 413.201 121.198 420.171 121.198C427.223 121.198 433.865 126.692 433.865 136.368ZM462.462 135.22C462.462 125.626 466.726 122.756 473.614 122.756H475.992V113.08C469.596 113.08 465.086 115.868 462.462 120.378V113.818H453.114V159H462.462V135.22ZM525.174 136.368C525.174 122.182 515.006 113.08 502.132 113.08C489.258 113.08 479.09 122.182 479.09 136.368C479.09 150.554 488.848 159.738 501.722 159.738C514.678 159.738 525.174 150.554 525.174 136.368ZM488.602 136.368C488.602 126.118 494.916 121.198 501.968 121.198C508.938 121.198 515.58 126.118 515.58 136.368C515.58 146.618 508.692 151.62 501.722 151.62C494.67 151.62 488.602 146.618 488.602 136.368ZM572.873 113.818H563.525V138.992C563.525 147.274 559.015 151.538 552.127 151.538C545.321 151.538 540.811 147.274 540.811 138.992V113.818H531.545V140.386C531.545 153.014 539.581 159.656 550.159 159.656C555.489 159.656 560.573 157.442 563.525 153.588V159H572.873V113.818ZM614.809 159H624.075V132.35C624.075 119.722 616.121 113.08 605.543 113.08C600.131 113.08 595.129 115.294 592.095 118.984V113.818H582.747V159H592.095V133.744C592.095 125.462 596.605 121.198 603.493 121.198C610.299 121.198 614.809 125.462 614.809 133.744V159ZM630.423 136.204C630.423 150.144 639.853 159.738 651.743 159.738C659.123 159.738 664.535 156.294 667.405 152.194V159H676.835V98.32H667.405V120.132C663.961 115.868 657.729 113.08 651.825 113.08C639.853 113.08 630.423 122.264 630.423 136.204ZM667.405 136.368C667.405 146.126 660.763 151.62 653.711 151.62C646.741 151.62 640.017 145.962 640.017 136.204C640.017 126.446 646.741 121.198 653.711 121.198C660.763 121.198 667.405 126.692 667.405 136.368ZM720.356 146.372C719.864 130.054 694.362 135.138 694.362 126.036C694.362 123.002 696.986 120.952 701.988 120.952C707.072 120.952 710.106 123.658 710.434 127.594H719.782C719.29 118.574 712.566 113.08 702.316 113.08C691.656 113.08 684.932 118.902 684.932 126.118C684.932 142.682 711.172 137.598 711.172 146.454C711.172 149.57 708.302 151.866 702.89 151.866C697.724 151.866 694.198 148.832 693.87 145.142H684.194C684.604 153.342 692.23 159.738 703.054 159.738C713.714 159.738 720.356 153.998 720.356 146.372Z" fill="white"/>
<path d="M236.757 88L833.709 85.9897" stroke="#00CC33" stroke-width="3" stroke-linecap="round"/>
<rect x="565.587" y="52" width="18.2122" height="35" fill="#00CC33"/>
<rect x="593.917" y="34" width="18.2121" height="53" fill="#00CC33"/>
<rect x="622.247" y="13" width="18.2121" height="74" fill="#00CC33"/>
<rect x="650.577" y="34" width="18.2121" height="53" fill="#00CC33"/>
<rect x="678.906" y="62" width="18.2121" height="25" fill="#00CC33"/>
<rect x="707.236" y="52" width="18.2121" height="35" fill="#00CC33"/>
<rect x="735.566" y="34" width="18.212" height="53" fill="#00CC33"/>
<rect x="763.896" y="11" width="18.2121" height="76" fill="#00CC33"/>
<path d="M174.638 80.7088H11.8537V94.1189H174.638V80.7088Z" fill="#00CC33"/>
<path d="M53.1763 161.583V174H0L54.9293 93.2911H77.3017L93.2462 116.801L109.024 93.2911H131.73L185.156 174H133.066V161.583H162.45L120.043 98.5889L93.2462 138.819L66.1989 98.4234L23.7081 161.583H53.1763Z" fill="#00CC33"/>
<path d="M0 0L54.9293 80.7089H77.3017L93.2462 57.1995L109.024 80.7089H131.73L185.156 0.000126745L0 0ZM23.7085 12.4167H162.45L120.043 75.4105L93.2462 35.1808L66.199 75.5766L23.7085 12.4167Z" fill="#00CC33"/>
</svg>
